<svg xmlns="http://www.w3.org/2000/svg" viewBox="0 0 342.42 342.43"><defs><style>.cls-1{fill:#fff;}</style></defs><g id="Layer_2" data-name="Layer 2"><g id="Layer_1-2" data-name="Layer 1"><path class="cls-1" d="M0,171.3A171.21,171.21,0,1,1,171.11,342.43,170.84,170.84,0,0,1,0,171.3Zm96.57-136c-.4.19-.62.29-.82.4A156.61,156.61,0,0,0,41.21,86.9a2.18,2.18,0,0,0,0,1.77c1.53,3.23,3.15,6.43,4.74,9.64Q82.47,172,119,245.73c.58,1.16.88,2.92,2.61,2.85s1.84-1.75,2.35-2.94q14-33,28-66a5.14,5.14,0,0,1,5.46-3.58c8.65.11,17.31.13,26,0,2.91-.05,4.51,1.06,5.67,3.72q14.35,32.94,28.89,65.81a12.66,12.66,0,0,0,1.23,2.26,1.5,1.5,0,0,0,2.69,0,17,17,0,0,0,1.21-2.27q39.13-78.27,78.28-156.53a2.3,2.3,0,0,0-.16-2.69,160.69,160.69,0,0,0-42.31-43.15c-4.08-2.82-8.34-5.37-12.63-8.13-.34.72-.57,1.18-.78,1.65q-16.63,37-33.26,73.91-11.34,25.2-22.66,50.41c-.87,1.94-2,3.29-4.34,3.28-9.27-.05-18.55,0-27.82,0a4,4,0,0,1-4-2.64q-24.73-55-49.52-110.09C101.47,46.19,99.05,40.79,96.57,35.28Zm220.49,81.53c-.4.78-.68,1.32-.95,1.86l-90,181.07a10.32,10.32,0,0,1-1.3,2.05,4.89,4.89,0,0,1-7.82,0,13.33,13.33,0,0,1-1.79-3.08q-20.5-45.81-41-91.64a15.9,15.9,0,0,0-1.45-2.62,1.44,1.44,0,0,0-2.43-.12,5.18,5.18,0,0,0-.8,1.34q-20,44.72-40,89.42c-.81,1.83-1.59,3.69-2.54,5.45-1.15,2.13-2.91,3.45-5.48,3.1-2.34-.33-3.58-2-4.56-3.95L26.86,118.5c-.25-.51-.53-1-.83-1.57C6.54,165.79,12.57,238.32,69.56,288.37a153.47,153.47,0,0,0,193.79,7.68C322.47,251.94,340.47,177.06,317.06,116.81ZM120.46,24.19c.21.53.3.8.42,1.07q24,54,47.93,108a10.16,10.16,0,0,0,1.23,2.09,1.4,1.4,0,0,0,2.41,0,11.8,11.8,0,0,0,1.15-2.13q23.9-53.79,47.76-107.59c.17-.38.3-.78.53-1.4C188,12.39,154.35,12.38,120.46,24.19Z"/></g></g></svg>