<svg xmlns:xlink="http://www.w3.org/1999/xlink" enable-background="new 0 0 28 30" viewBox="0 0 28 30" xmlns="http://www.w3.org/2000/svg" width="28"  height="30" ><path d="m12.1 3.1h-3.8c-1.3 0-2.3 1.1-2.3 2.3v9.6c0 1.3 1 2.3 2.3 2.3h3.8c1.3 0 2.3-1 2.3-2.3v-9.6c0-1.2-1-2.3-2.3-2.3zm.6 2.3v9.6c0 .3-.3.6-.6.6h-3.8c-.3 0-.6-.3-.6-.6v-9.6c0-.3.3-.6.6-.6h3.8c.3.1.6.3.6.6z"></path><path d="m27.5 5.3-2.9-2.9-.1-.1c-.4-.3-.9-.3-1.2.1-.2.2-.2.4-.2.6s.1.4.3.6l2.6 2.6v19.3c0 .3-.3.6-.6.6s-.6-.3-.6-.6v-10c0-1-.8-1.8-1.8-1.8h-4.9v-11.1c0-1.3-1-2.3-2.3-2.3h-11.4c-1.3 0-2.3 1-2.3 2.3v21.7c-1.1.2-1.9 1.1-1.9 2.3v1c0 1.3 1 2.3 2.3 2.3h15.3c1.3 0 2.3-1 2.3-2.3v-1c0-1.1-.8-2.1-1.9-2.3v-8.8h4.9c.1 0 .1 0 .1.1v10.1c0 1.3 1 2.3 2.3 2.3s2.3-1 2.3-2.3v-19.8c0-.2-.1-.5-.3-.6zm-23.6 18.9v-21.6c0-.4.2-.6.5-.6h11.5c.3 0 .6.3.6.6v21.6zm14.5 2.3v1c0 .3-.3.6-.6.6h-15.3c-.3 0-.6-.3-.6-.6v-1c0-.3.3-.6.6-.6h15.3c.3 0 .6.3.6.6z"></path></svg>