<svg id="svg" xmlns="http://www.w3.org/2000/svg" viewBox="0 0 312.89 379.48"><defs><style>.cls-1{fill:#fff;fill-rule:evenodd;}</style></defs><g id="svgg"><path id="path1" class="cls-1" d="M67.58,10.18c-5,.8-9.15,1.45-13.16,2.07-5.51.85-6.16,1-6.29,1.07a36.57,36.57,0,0,0,4,1.4l7.95,2.53,9.34,3,15,4.78c9.22,2.94,10.88,3.47,14.12,4.48l3.63,1.16c7,2.25,7.12,2.28,5.38,1.22l-3.18-2c-1.13-.72-5.1-3.21-8.83-5.54s-7.16-4.48-7.62-4.77-4.21-2.65-8.33-5.22c-8.66-5.41-7.26-4.92-12-4.17m259.67-.31c-.48.26-13.05,8.08-13.75,8.55l-10.83,6.79c-11.51,7.19-11.93,7.46-11.83,7.45s3.49-1,17.08-5.35l12.58-4,9.42-3,5.66-1.81c.83-.26,4.24-1.34,7.59-2.42l7.21-2.29c1.44-.44,1.41-.52-.25-.78l-3.3-.51-3.66-.58-6-.93c-9.22-1.45-9.33-1.46-9.92-1.12M43.37,15.44c.08.3,3,8,7.92,20.64,1.24,3.21,2.53,6.59,2.88,7.5s1.73,4.52,3.08,8c2.3,6,4,10.51,6.5,16.92.58,1.51,2.15,5.6,3.5,9.08s2.93,7.57,3.5,9.09l2.46,6.41,3,7.72,1.56,4,1.17-1.22L84.33,98c2.34-2.43,5.71-5.92,7.5-7.75S95.9,86.05,96.9,85s3.22-3.34,4.93-5.08c7.76-7.93,13-13.44,13-13.67S112.3,60,111,57.08c-.17-.36-1.48-3.4-2.92-6.75-8.07-18.76-7.19-16.87-7.94-17.12l-4.47-1.43-7.92-2.53-5.54-1.77-3.08-1c-1.77-.55-6.78-2.15-15.21-4.85l-7.09-2.25-3.66-1.16-5.75-1.82-3.74-1.17c-.33-.11-.38-.08-.31.18M354,15.86,350.42,17l-7.09,2.25-9.41,3-9.42,3c-9,2.88-16.29,5.18-20.83,6.61-5.12,1.62-4.8,1.42-5.63,3.33-2.7,6.23-6.77,15.68-9.82,22.78l-3.6,8.39,1.65,1.7c.91.93,2.74,2.81,4.07,4.19l7.58,7.84,9.83,10.16c12.7,13.13,14,14.42,14.12,14.28s.95-2.15,2.54-6.36c.4-1.06,2.54-6.61,4.75-12.34s4.44-11.5,4.95-12.83,1.09-2.87,1.31-3.42,1.33-3.43,2.47-6.41,3.28-8.53,4.74-12.34,3.27-8.49,4-10.41,3-7.7,4.95-12.84c4.28-11.09,4.77-12.42,4.61-12.41s-1.05.31-2.2.69M188,19.59,175.92,22.4,161.1,25.81a18.63,18.63,0,0,0-3.31.91c.21.13,1.4.59,10.29,4l13.25,5c12.92,4.87,16.37,6.16,16.52,6.16s.15-4.89.15-12.25c0-9.69,0-12.24-.21-12.23s-4.52,1-9.79,2.24m13.67,10V41.86l.37-.12c.4-.12,9.75-3.62,12.46-4.66l12.58-4.75c14-5.27,14.64-5.51,14.47-5.67s-2.86-.82-6.8-1.74l-18.5-4.26L202,17.39l-.37-.09V29.58m-49.84-1.46c-.55.2-12,4.58-25.53,9.76l-3.12,1.2L124.7,42l2.64,5.08,3.12,6,3.37,6.5,2.34,4.5c1.11,2.13,2.35,4.52,5.75,11.09l5.66,10.91c1.77,3.39,3.87,7.44,4.67,9s1.67,3.21,1.92,3.67,1,1.82,1.57,3l1.12,2.19,3.2-2.29c3.9-2.8,17.64-12.74,29.11-21.05,1.23-.9,3.6-2.61,5.26-3.8s3.1-2.25,3.2-2.37.05-.49-9.06-12.57C172.17,40.12,168.36,35,168,34.41a1.84,1.84,0,0,0-.9-.86c-.28-.09-3.72-1.38-7.64-2.86S152.28,28,152.21,28a2.69,2.69,0,0,0-.38.11M239.39,31c-6.74,2.54-7.38,2.81-7.66,3.28-.16.28-3.51,4.78-7.45,10-18.16,24.13-22.45,29.86-22.45,30a9.69,9.69,0,0,0,1.63,1.34l6,4.31c5.47,4,15.31,11.08,19.69,14.24l8.36,6c2.75,2,5.08,3.62,5.16,3.62s1.49-2.57,3.12-5.71c3.56-6.85,4.65-9,5.92-11.37l2.42-4.67c.8-1.56,2.3-4.44,3.33-6.41s2.45-4.71,3.16-6.09L263,64.92,266.58,58l3.33-6.42c4-7.6,6.47-12.43,6.39-12.5s-3.73-1.51-10.13-3.95l-9.59-3.67c-5.68-2.17-9.1-3.33-9.69-3.28-.08,0-3.45,1.26-7.5,2.78M292,35.59l-6.67,2.13c-5.53,1.77-5,1.56-4.93,2.18.05.28.77,5.05,1.6,10.59s1.54,10.1,1.58,10.14.32-.38,3-6.59l4.52-10.46c2.74-6.33,3.77-8.78,3.71-8.83s-1.29.36-2.8.84m-187.17-.7c0,.16,10.71,25.08,11,25.58.19.34.34-.45,1.17-6s1.43-9.57,1.85-12.32.42-2.74-.13-3c-2.21-.85-13.88-4.43-13.88-4.26m70.65,4.49,11.93,15.87c8.14,10.82,10,13.25,10.46,13.82.07.09.13-5.24.13-11.83v-12l-1.46-.56c-1.6-.61-20.52-7.76-22.57-8.52l-1.27-.47,2.78,3.69m49.19-2.87-12.48,4.72c-5.72,2.16-10.43,4-10.46,4s-.09,23.81,0,23.87,1.54-2,3.37-4.4L217.26,48.5c8.6-11.43,9.65-12.85,9.54-12.82l-2.13.83m52.54,7.7c-.29.57-1.61,3.1-2.93,5.62l-4.11,7.92c-.94,1.83-2.07,4-2.5,4.83s-1.34,2.55-2,3.84l-2.25,4.33-2.34,4.5-2.25,4.33-2.16,4.17-2.17,4.17c-.52,1-1.54,3-2.25,4.33s-1.76,3.4-2.34,4.5c-2.91,5.59-3.43,6.62-3.35,6.69a14.82,14.82,0,0,0,2.3-.34l14.81-2.77C280.57,97.18,280.9,97.12,281,97s.15-3.69.21-8.09.15-10.89.21-14.42c.08-5.48.06-6.68-.18-8.25-.15-1-.8-5.32-1.44-9.58s-1.35-9-1.58-10.5-.43-2.81-.45-2.88-.28.35-.58.92M121.37,46c-.21,1.44-.56,3.82-.79,5.29s-.55,3.68-.74,4.92-.45,3-.59,3.91-.44,2.94-.68,4.5l-.42,2.84.1,14.33c0,7.88.13,14.56.17,14.83l.08.5,3.88.72c6.58,1.22,11.77,2.18,14,2.62,4.74.9,16.47,3.08,16.6,3.08a8.09,8.09,0,0,0-.84-1.88l-3.76-7.29c-1.54-3-3.15-6.09-3.59-6.91s-1.45-2.78-2.25-4.34-1.81-3.51-2.25-4.33c-.81-1.54-1.05-2-6.41-12.33-8.34-16.07-12-23.09-12.09-23.09a24,24,0,0,0-.46,2.63m-7.26,25.72c-1.07,1.16-8.57,8.9-13.61,14.07-1.79,1.83-4.15,4.27-5.25,5.42-2.67,2.78-7.57,7.83-10.64,11-1.38,1.4-2.46,2.55-2.4,2.55s6.94-1.62,15.87-3.75l5.34-1.26C110.31,98,115,96.87,115.09,96.8s.06-6,0-13.12l0-13.05-1,1.05M284.5,79.89c0,5-.05,10.93-.11,13-.1,3.69-.09,3.86.21,4L289.17,98l7.41,1.77,6.75,1.6,5.59,1.32,5.16,1.23c1.74.41,3.18.73,3.2.71s-2.08-2.22-4.66-4.88-5.67-5.84-6.86-7.07l-7.08-7.33-9.55-9.86-4.63-4.78v9.2m-91.67,1.87c-2.7,2-6.3,4.57-8,5.79-22.13,16-26.1,18.87-26.22,19.07a19,19,0,0,0,.15,2.38c.32,3.18,1.15,11.3,1.75,17.12.28,2.73.58,5.64.66,6.46s.42,4.09.74,7.25.71,6.92.85,8.34.33,3.22.4,4,.25,2.33.36,3.44l.21,2,2.43-1.26c5.61-2.91,6.9-3.58,9.59-5l5-2.59,11.08-5.72c2.07-1.06,4.28-2.21,4.92-2.56l1.17-.64L198,109c0-17,0-30.87-.08-30.86s-2.34,1.61-5,3.58m8.84,27.3V140l3.46,1.79,15.7,8.11,4.59,2.38c5.47,2.87,10.26,5.26,10.39,5.18a5.07,5.07,0,0,0,.25-1.47c.12-1.5.28-3.21.69-7,.14-1.38.33-3.22.42-4.09s.27-2.71.41-4.08.33-3.23.42-4.13.24-2.35.33-3.25.28-2.71.42-4,.32-3.16.41-4.08.28-2.79.42-4.17c.3-2.78.53-5.08.75-7.33.08-.83.27-2.76.43-4.3l.28-2.79-.47-.37c-.25-.21-1.7-1.28-3.22-2.38-5-3.67-10.73-7.78-13.35-9.66L213.83,86.9c-8.54-6.2-11.65-8.44-12-8.63s-.21,6.1-.21,30.79m-86.92-9c-5.43,1.27-7.2,1.69-9.5,2.26-1.47.35-4.13,1-5.92,1.4l-6.25,1.48c-3.86.93-9.64,2.31-12.08,2.88a11.31,11.31,0,0,0-2.12.62,87.5,87.5,0,0,0-1.66,9.56l-.28,1.88.51.53c.28.3,1.28,1.66,2.22,3l2.41,3.5,3.86,5.58c1.74,2.52,4.62,6.69,6.4,9.25l6.38,9.25c1.73,2.52,3.24,4.68,3.35,4.8s1.48-1.11,9-9.28l3.34-3.6c5-5.33,6.59-7.07,7.84-8.43.73-.8,2.65-2.87,4.26-4.6,4.59-4.92,4.82-5.17,4.82-5.34a39.83,39.83,0,0,0-2.25-3.88c-.21-.32-1.11-1.78-2-3.25l-3.58-5.83-4-6.59c-2.83-4.6-3.34-5.39-3.53-5.43a6,6,0,0,0-1.17.2m168.55.11c-.14.2-2.18,3.52-4.55,7.37l-6.5,10.59c-1.22,2-2.63,4.28-3.15,5.13l-.94,1.55.46.55c.26.3,1.89,2.08,3.63,4,14.56,15.66,20.82,22.4,22.75,24.5,1.24,1.34,2.29,2.45,2.33,2.45s.78-1,4.93-7c9-13.08,18.39-26.62,19.32-27.89l1.08-1.47-.84-5.28c-.46-2.9-.88-5.44-.93-5.65-.1-.42-.08-.41-4.12-1.37-3.29-.77-10.09-2.39-14.35-3.42L296,102.72l-5.25-1.24c-2.49-.6-7.05-1.65-7.14-1.65a1.14,1.14,0,0,0-.31.38m39.07,25.42L317,133.35c-8.37,12.08-14,20.15-15.58,22.53s-1.61,2.37-1.25,2.48,2.56.86,13.79,4.72l9.17,3.14c3.62,1.24,6.71,2.3,6.87,2.37.41.16.4-.07-.37-4.86-.37-2.28-1.12-7-1.67-10.4s-1.56-9.77-2.25-14.08-1.48-9.3-1.76-11.08c-.66-4.26-.56-4.1-1.62-2.54m-246.18-.78a11.8,11.8,0,0,0-.36,1.73c-.1.74-.41,2.72-.68,4.42-.94,5.91-1.5,9.44-2,12.42-.27,1.65-.68,4.23-.92,5.75s-.69,4.32-1,6.25-.79,5-1.08,6.75-.63,4-.77,4.8a10.4,10.4,0,0,0-.19,1.63c.06.06,6.53-2.11,13.46-4.52l5.83-2c6.5-2.21,11.08-3.79,11.14-3.84S98.22,156,88.83,142.42l-8.47-12.25c-1.39-2-3.75-5.42-3.88-5.57s-.2,0-.29.25m54.89,5c-1.46,1.58-3.23,3.48-3.91,4.24-1.16,1.26-2.41,2.6-7.76,8.34l-3.26,3.51-6.35,6.84c-2.82,3-5.29,5.71-5.49,6l-.36.46.88,2.19c.48,1.21,1.87,4.63,3.09,7.61,5.54,13.61,7.58,18.59,9.44,23.17l3.46,8.5c.81,2,2.27,5.57,3.26,8s1.84,4.47,1.91,4.55,2.08-2.82,4.46-6.42c6.15-9.29,13.86-20.93,16.63-25.13,1.3-2,4.75-7.19,7.67-11.59l5.69-8.62c.47-.74.49-1.27.15-4.43-.3-2.73-.46-4.32-1-9.7l-.58-5.66c-.33-3.06-.66-6.27-.84-8.34-.32-3.59,0-3.17-2.42-3.49l-6.5-.85-2.42-.33c-.59-.09-2.58-.35-4.41-.58l-5-.67c-.92-.12-2.12-.28-2.67-.33l-1-.11-2.67,2.87m131-2.42-6.75.89c-2.15.29-4.44.59-5.08.69l-3.17.42c-2,.26-3.83.51-4.85.67-.52.08-.52.08-.61,1.37-.06.71-.22,2.38-.37,3.71-.24,2.24-.7,6.7-1.33,13-.39,3.9-.74,7.24-.92,8.91-.24,2.27-.26,3.63,0,4,.11.2,2.43,3.73,5.14,7.83l7.81,11.8c1.57,2.38,4.72,7.15,7,10.58L266,202c5.36,8.12,7.23,10.91,7.43,11.13s.19.27,3.61-8.13l6.07-14.92c2.54-6.23,5.34-13.09,6.21-15.25s2.28-5.6,3.12-7.66c2.74-6.66,3.12-7.64,3.06-8,0-.19-5.6-6.32-12.39-13.63C264.71,125.77,265.89,127,265.37,127c-.25,0-1.73.19-3.29.4m-66.33,17.13c-1.1.58-4,2.09-6.5,3.36s-5.18,2.66-6,3.09c-2.41,1.27-9.73,5.05-14.5,7.5C165,160.43,164,161,164,161.14s1.14,4,3.83,13c1.31,4.35,2.41,8,2.46,8.2.1.37-.23.29,6,1.45,8.32,1.53,20.7,3.84,21.21,3.94l.46.1V165.68c0-12.2-.06-22.18-.12-22.18s-1,.48-2.13,1.05m5.92,21.12v22.17l.37-.09c.21,0,1.24-.24,2.29-.42,2.81-.51,5.56-1,12.09-2.23,11.66-2.18,12.58-2.37,12.73-2.52s.69-2,1.34-4.16l1.51-5.09c2.13-7.05,3.5-11.78,3.5-12.07s-.13-.44-6.33-3.64l-7.42-3.83-7.5-3.87-7.79-4c-2.54-1.31-4.66-2.39-4.71-2.39s-.08,10-.08,22.17m-100.84-4.55-3.91,1.33-5.75,2c-2.89,1-6.76,2.33-14.84,5.09-3.8,1.3-6.94,2.4-7,2.43s.7,3.16,4.87,19.4c.85,3.28,3.1,12.08,5.63,22,.55,2.16,1.37,5.34,1.82,7.09,1.27,5,3.31,12.93,4,15.66l.64,2.5,1.11-2.33c.62-1.28,1.18-2.48,1.25-2.67s1-2.21,2-4.5,2.5-5.44,3.21-7S96,217.45,97,215.25s2.79-6.1,4-8.67c2-4.49,6.21-13.61,7-15.33,3.44-7.5,3.44-5.49,0-13.92-.66-1.6-1.53-3.74-1.94-4.75-3.51-8.67-4.69-11.48-4.83-11.51a.78.78,0,0,0-.41.05m196.54,2c-.47,1.17-1.58,3.89-2.46,6s-2.37,5.83-3.33,8.16-2,4.82-2.25,5.5c-.75,1.79-.7,2,1.72,7.25l2.49,5.42c3.74,8.21,6.93,15.2,8.75,19.17,1.24,2.7,3,6.53,3.88,8.5s2.73,6,4.08,8.91L313,238l.28.62.37-1.45c.2-.8.84-3.33,1.43-5.62s1.68-6.56,2.43-9.5,1.68-6.61,2.08-8.16,1.27-4.94,1.92-7.5,1.44-5.65,1.75-6.84,1.25-4.86,2.09-8.16,2.31-9,3.25-12.73l1.72-6.72-.53-.22c-.48-.2-2.63-.94-10.86-3.75l-7.5-2.58c-6.43-2.22-13-4.42-13.09-4.42a14.53,14.53,0,0,0-1,2.12m-59.75,2.09c-.09.37-2.25,7.66-2.7,9.1-.89,2.83-2.59,8.72-2.59,9s1.21,1.64,6,6.62c1.72,1.79,1.93,1.94,8.85,6.49,3.89,2.56,9.93,6.54,13.41,8.85l6.56,4.31c.23.14-.14-.47-1.69-2.82l-5.85-8.83L250,183.33l-8.42-12.71c-3.05-4.63-3.84-5.71-3.91-5.41m-78.2,3.33c-1.28,2-4.91,7.44-8.07,12.21-12.36,18.67-18.78,28.38-19.06,28.84,0,.1,1.49-.88,3.43-2.16s6.19-4.11,9.45-6.25l10.27-6.79,4.35-2.88,2.22-2.38c1.23-1.31,2.93-3.11,3.79-4,1.28-1.32,1.56-1.69,1.48-2C167,181.85,161.9,165,161.83,165s-1.13,1.59-2.41,3.53m8.71,18.64-3.43,3.63-1.94,2.05,1.41,1.36c.78.75,4.94,4.67,9.25,8.7s8.58,8,9.5,8.91,2.26,2.15,3,2.83l2.75,2.59c3.66,3.49,9.14,8.58,9.23,8.58s.08-7.85.06-17.44l0-17.45-2.5-.47-3.84-.71-4.41-.82c-6.08-1.15-10.47-2-13.5-2.52-1.7-.3-3.3-.61-3.57-.68-.45-.11-.59,0-2,1.44m61.29-1.42c-.1,0-1.6.33-3.34.65L217.5,188l-6.83,1.27-2.59.48-3.66.67a22.76,22.76,0,0,0-2.63.57c-.07.06-.11,7.94-.08,17.51l0,17.41,2-1.92c1.11-1.05,3.77-3.56,5.92-5.57L216.5,212l6.83-6.42,6.92-6.5,4.71-4.4a11,11,0,0,0,1.71-1.79,82.62,82.62,0,0,0-6.9-7.21,1.37,1.37,0,0,0-.35.08m-119.16,7.93-2.8,6.14L105.54,204c-.77,1.7-2.18,4.77-3.12,6.83s-2.74,6-4,8.75-2.83,6.2-3.5,7.67l-4.07,8.91c-1.57,3.43-2.83,6.33-2.79,6.43s2,1.45,4.38,3c4.87,3.17,8.43,5.5,11.73,7.66l3.91,2.56,14.9,9.73c7.28,4.76,13.33,8.69,13.46,8.74.43.17.89,2.37-5.95-28.28-1.38-6.19-3.26-14.63-4.17-18.75-2.62-11.73-2.35-10.78-4.32-15.58l-2.25-5.5c-3-7.42-6.59-16.17-6.87-16.81l-.31-.73-2.31,5.06m176.51-4.52c-.13.32-1.33,3.28-2.68,6.58s-3.07,7.54-3.84,9.42c-4.3,10.5-4.38,10.71-5,13.25-.51,2.17-2.9,12.83-3.51,15.66-.75,3.44-2.46,11.08-2.77,12.34-.39,1.61-6.16,27.71-6.16,27.89s-.81.75,14.84-9.48c7.1-4.64,14.11-9.23,15.58-10.18l10.53-6.88,7.87-5.14-.28-.69c-.15-.38-.56-1.27-.9-2s-.64-1.33-.64-1.36-.46-1.07-1-2.29c-1.77-3.86-3.77-8.21-6.39-14-1.4-3.07-3.39-7.42-4.42-9.66s-2.19-4.8-2.58-5.67-1.76-3.87-3-6.67-3-6.58-3.86-8.41L287,188.6l-.24.57m-131,8.71-8.5,5.61c-20,13.16-20.1,13.25-20,13.82.23,1,5.85,26.33,8.51,38.27,1.78,8,3.51,15.74,3.84,17.25s.65,2.81.71,2.88-.14.27,28.35-11l11-4.33c11.6-4.57,15.93-6.28,17-6.75l1.29-.53V230.4l-1.87-1.83c-1-1-3.68-3.52-5.88-5.58s-4.75-4.45-5.66-5.32l-6.92-6.5-6.92-6.5c-7-6.64-10.28-9.67-10.52-9.67-.08,0-2.1,1.3-4.49,2.88m80.75-.42c-1.42,1.35-3.67,3.47-5,4.7s-3.16,3-4.07,3.84-3.39,3.2-5.5,5.17c-3.52,3.3-5.66,5.3-12.5,11.74l-5.13,4.82-2.63,2.47.05,11.52,0,11.51,3.42,1.36c3.19,1.27,6,2.36,19.41,7.66l8.67,3.41c24.95,9.84,25.92,10.22,26,10.13s.85-3.62,1.82-8,3.15-14.13,4.85-21.74,3.19-14.28,3.3-14.83l1.68-7.56c1-4.64,1.42-6.65,1.31-6.84s-8.87-6.13-27.87-18.63c-2.69-1.77-5-3.22-5.09-3.22a28.87,28.87,0,0,0-2.78,2.46m89.4,4.17c-.36,1.48-2.22,8.79-3.28,12.87-.32,1.24-1.2,4.65-1.94,7.58s-1.58,6.2-1.86,7.25l-2,7.84c-.82,3.25-1.63,6.18-1.78,6.5-.32.65-.08.49-15.16,10.31l-5.76,3.78-3.05,2,7.43,1.29c11.12,1.95,17.94,3.13,24.51,4.27l6.75,1.18c2.78.53,7.48,1.31,7.55,1.25a10.07,10.07,0,0,0-.19-1.71c-.74-4.49-3-18-4.37-26.55l-2.6-15.75c-.56-3.39-1.66-10.08-2.46-14.87l-1.44-8.7-.35,1.45m-252.61-.88c-.12.5-2.2,13-4.11,24.67-.56,3.39-1.47,8.9-2,12.25s-1.78,10.84-2.74,16.66l-2,12a13.47,13.47,0,0,0-.2,1.46c.05,0,5.71-.92,14.52-2.47l18.08-3.15c3.17-.54,6.13-1.07,6.59-1.16l3.94-.7,3.11-.53-.61-.44c-.55-.39-4.38-2.91-9.69-6.37l-4.84-3.16-5.69-3.71c-3.37-2.19-3-1.48-4.71-8.35-.77-3-2.09-8.2-2.94-11.5l-2.66-10.42c-.62-2.43-1.67-6.51-2.34-9.08s-1.29-5.08-1.4-5.58c-.19-.86-.21-.89-.31-.42m119.22,57.9L176.42,265l-13.84,5.46-14.75,5.81c-4.51,1.77-4.55,1.79-3.88,2,.26.1,1.78.75,3.38,1.45s4.8,2.09,7.09,3.08l9.83,4.25,11,4.75,11.58,5c11.55,5,12.74,5.5,12.95,5.5s2.15-.83,4.51-1.85c6.86-3,17-7.33,31-13.4l9.17-4c9.57-4.13,11.5-5,11.5-5.1s-2.75-1.21-11.83-4.78L235.92,270l-8.25-3.25-8.42-3.31-7.75-3.06L204,257.43c-2.23-.88-4.14-1.59-4.25-1.59s-3.38,1.27-7.28,2.81m-82.92,4-2.58.47-8.33,1.45-6,1-11,1.92c-14,2.42-18.72,3.26-18.81,3.34s4.39,7.47,10.48,17.51c2.23,3.67,14.06,23.23,20.83,34.41,2.9,4.82,6.81,11.27,8.67,14.34l5,8.2a20.46,20.46,0,0,0,1.73,2.63,32.76,32.76,0,0,0,2.66-2l5.71-4.63c1.75-1.43,6.18-5,9.85-8l8.67-7,11.91-9.67,11.59-9.39,4.38-3.56,8.67-7a16,16,0,0,0,1.76-1.56c0-.15-1.94-1-16.31-7.22-4.59-2-8.64-3.73-9-3.89-1.45-.65-8.25-3.56-9.55-4.09a31.47,31.47,0,0,1-4-2.29l-4.53-3-4.71-3.07c-16.21-10.63-14-9.46-17-8.9m177.17-.11c-.42.29-9.27,6.06-12.16,7.94-2.19,1.42-4.78,3.11-10.3,6.74-3,2-3.15,2-10,5l-13.67,5.9-9.75,4.21c-5.68,2.45-6.18,2.68-6,2.8.3.26,9.89,8.06,11.71,9.52l2.83,2.29c1.15.94,3.91,3.18,6.15,5l5.18,4.21,3.52,2.85,5.76,4.66c1.84,1.51,4.42,3.6,5.73,4.65l6.58,5.34,5.84,4.75,3.57,2.89c4.67,3.8,8.3,6.69,8.4,6.69s1.82-2.73,14.31-23.42l6.71-11.08c.75-1.24,2.26-3.71,3.34-5.5,5.05-8.37,6.91-11.45,8.41-13.92,1.37-2.24,4.58-7.55,9.39-15.5l2.82-4.66,1.81-3-.88-.19c-.49-.11-2-.39-3.39-.63l-19.16-3.33-11.42-2-5.83-1-6.34-1.09c-2.22-.39-2.63-.4-3.08-.1M176.16,298l-7.58,6.13c-3.11,2.54-6.68,5.43-7.91,6.43l-3.9,3.15-4,3.26-3.61,2.92L144,324.1c-4.41,3.57-5.29,4.28-8,6.49l-4.42,3.59-4.41,3.58L122,342c-7.41,6-10,8.11-10,8.2s.28.23.63.38c.72.31,65.82,29.9,68.7,31.22,6.34,2.91,16.36,7.42,16.51,7.42.35,0,.13-84-.22-84.25-.16-.12-2-.95-4.08-1.84L188.75,301c-2.3-1-10.41-4.5-10.54-4.5a20.17,20.17,0,0,0-2.05,1.53m39.67.82-9.75,4.23L201.75,305l0,42.1,0,42.1.54-.18c.41-.14,29.48-13.3,36.37-16.47l8.34-3.79,10-4.54,3.58-1.63c10.69-4.86,21.18-9.63,22.08-10.05l3.14-1.41,2-.87-.92-.77c-1.86-1.55-2.89-2.39-15.09-12.28l-15.09-12.23c-31-25.16-35-28.43-35.21-28.43s-2.56,1.06-5.54,2.35" transform="translate(-43.34 -9.69)"/></g></svg>